# xmcd
#
# Track frame offsets: 
#        150
#        30550
#        50759
#        71938
#        94828
#        114339
#        132597
#        159373
#        191533
#        212197
#        239395
#        267437
#        285370
#        306741
#
# Disc length: 4462 seconds
#
# Revision: 0
# Processed by: cddbd v1.5.2PL0 Copyright (c) Steve Scherf et al.
# Submitted via: ExactAudioCopy v0.95b3
#
DISCID=d7116c0e
DTITLE=Grace Jones - Ultimate Collection - 32bit RMST
DYEAR=2006
DGENRE=R and B
TTITLE0=The hunter Gets Captured by The Game
TTITLE1=I've Seen that Face Before
TTITLE2=Pull Up to The Bumper
TTITLE3=Nightclubbing
TTITLE4=Walking in the Rain
TTITLE5=Demolition Man
TTITLE6=Nipple to the Bottle
TTITLE7=The Apple Stretching
TTITLE8=Inspiration
TTITLE9=My Jamaican Guy
TTITLE10=Slave to the Rhythm
TTITLE11=I'm Not Perfect (But I'm Perfect for you)
TTITLE12=Victor Should Have Been a Jazz Musician
TTITLE13=Love on top of Love
EXTD=
EXTT0=
EXTT1=
EXTT2=
EXTT3=
EXTT4=
EXTT5=
EXTT6=
EXTT7=
EXTT8=
EXTT9=
EXTT10=
EXTT11=
EXTT12=
EXTT13=
PLAYORDER=
